<svg xmlns="http://www.w3.org/2000/svg" viewBox="0 0 1417.32 1417.32"><defs><style>.cls-1{fill:#168754;}</style></defs><title>Artboard 7</title><g id="Buyer_Service_Fee" data-name="Buyer Service Fee"><path class="cls-1" d="M665.41,446.45c-36.67,29.33-71.31,57.17-106.1,84.81-31.11,24.72-43.74,57.42-36.17,95.56,7.61,38.32,32.26,63.72,70.69,73.36,26.85,6.73,52.85,3.09,75.66-13.57,24.43-17.84,48.27-36.5,73.48-55.64,17.89,16.16,35.78,32.07,53.4,48.28q61.62,56.68,123,113.62c24.18,22.44,29.4,52.91,13.72,78.08-18.22,29.26-48.72,39.23-80.93,25.69-7.37-3.1-10.26-1.6-14.46,4.94-24.37,38-64.76,43.34-99.09,13.73-6.33-5.46-12.85-10.71-19.49-16.24-6.7,9.29-11.72,17.87-18.27,25-24.42,26.7-58.85,29-86,5.12-36.6-32.16-72.93-64.64-108.54-97.88-10.77-10.06-21.29-15-36.29-14.62-38.79,1-77.63.44-116.45.3-45.42-.15-70.08-25-70.09-70.43q0-78.11,0-156.23c.08-43.72,25.09-68.68,68.66-68.72,29.35,0,58.72.46,88.05-.33a45.64,45.64,0,0,0,22.23-6.94c29.12-18.56,57.58-38.16,86.46-57.11C581.14,436.11,616,430.82,653.17,441,656.67,442,659.89,444,665.41,446.45Z"/><path class="cls-1" d="M781.73,600.72c8.18-6.23,14.94-11.26,21.58-16.45,14.28-11.17,17.28-23.85,8.45-35.26s-22.26-12-36.28-1q-58.1,45.53-115.92,91.37c-16,12.72-32.26,23.07-54.33,17.11-20.3-5.48-32.19-18.29-37.81-38.18-5.27-18.64.34-34.1,14.31-45.91,37.94-32.06,75.91-64.16,115.09-94.67,18-14,37.6-28.06,58.78-35.63,39.22-14,77.15-5.41,111.85,17.54,27.6,18.25,55.17,36.6,83.38,53.88a55.91,55.91,0,0,0,26.3,7.79c29.8,1,59.65.23,89.47.42,40.81.25,66.09,24.08,66.69,64.87.81,55.39.68,110.8.07,166.19-.41,36.54-22.53,60.08-59.15,63.41a334.59,334.59,0,0,1-51.05.38c-6.33-.4-13.45-4.51-18.34-9Q896.93,709,789.64,609.74C787.28,607.57,785.37,604.91,781.73,600.72Z"/></g></svg>