<svg xmlns="http://www.w3.org/2000/svg" viewBox="0 0 1417.32 1417.32"><defs><style>.cls-1{fill:#168754;}.cls-2{fill:#30b670;}</style></defs><title>Artboard 16</title><g id="cart"><path class="cls-1" d="M768.11,702c-70.26,0-140.52.33-210.78-.25-15.84-.13-23.36,3.63-17.8,20.64,1.37,4.2,1.65,8.76,2.32,13.17,4.49,29.68,15.66,39.79,45.73,39.85,85.59.19,171.19.07,256.78.07,51.74,0,103.48-.28,155.21.19,17.32.16,34.95,1.37,43.6,20.86,8.45,19,0,39.84-20,46.12a82.9,82.9,0,0,1-24.42,3.32q-206,.29-412,.1c-58.13-.06-99.59-33.49-110.85-91q-38.2-195.22-75-390.72c-2.78-14.68-8.32-22.22-25-21.55-21.59.87-43.37-.25-64.91-2.23-18.22-1.67-26.66-15.45-27.49-31.8-.81-15.83,7.14-30,23.78-32.68,37.22-5.9,75.09-8.89,111.17,5.05,11.82,4.57,23.33,14.11,30.91,24.38,8.79,11.88,18,15.39,32.05,15.36q285.51-.58,571-.26c71.31,0,93.68,28.85,75.22,97.15S1090.93,554.31,1072,622.44c-13.12,47.24-49.92,77.2-98.91,78.06-68.31,1.2-136.65.3-205,.3C768.12,701.19,768.12,701.57,768.11,702Z"/><path class="cls-1" d="M907.12,965.86c.12-40.63,29.49-69.43,70.47-69.1,38.08.3,69.76,31.77,69.83,69.38.08,38.74-32.14,70.73-71,70.5C936.5,1036.41,907,1006.27,907.12,965.86Z"/><path class="cls-1" d="M546,896.57c39.7.27,70.12,31.39,69.36,71-.76,39.4-32.32,69.84-71.72,69.17-38.8-.65-68.58-31.39-68.21-70.39C475.8,926.07,505.92,896.31,546,896.57Z"/><path class="cls-2" d="M717.23,592.91c-1.9,2.18-3,3.64-4.33,5-8.22,8.28-16.35,16.64-24.74,24.74a13,13,0,0,1-21.62-5.68c-1.48-5.16,0-9.69,3.78-13.52,9.37-9.39,18.69-18.83,28.25-28.47-.57-.54-1.29-1.26-2.05-1.94-18.13-16.28-18.87-42-1.7-59.19,1.26-1.26,2.49-2.55,3.79-3.77,3.1-2.9,6.35-2.93,9.49,0,9.67,8.84,16.89,19.13,19.12,32.37a13.83,13.83,0,0,0,.58,1.88l12.42-12.61c-1.06-.91-2.36-1.88-3.48-3-15.88-16-15.89-40.63-.06-56.66,1.48-1.5,2.93-3,4.49-4.44,2.93-2.65,6.17-2.62,9.13,0,10.16,9,17.24,19.86,19.53,33.47.06.31.16.61.16.63L782.54,489a51,51,0,0,1-4.81-4.25c-14.63-16.1-14-39.77,1.36-55.21,1.32-1.32,2.62-2.65,4-3.95,3.29-3.19,6.73-3.26,10-.05,2.61,2.53,5.08,5.22,7.58,7.87a26.06,26.06,0,0,1,1.71,2.34c1.33-1.17,2.26-1.91,3.09-2.74,5.17-5.14,10.35-10.27,15.46-15.46,5.47-5.55,11.15-4.1,14.49-1.07,4.13,3.75,4.28,9.82.15,14.06q-10.77,11-21.76,21.87A5.43,5.43,0,0,0,812,458c1.46,7.39.91,14.8-.57,22.15-.1.47-.1.94-.19,1.8,1.07-.14,2-.18,2.87-.38a50.46,50.46,0,0,1,20.44-.55c2,.38,3.39-.57,4.71-1.89q11.18-11.16,22.4-22.27c4.29-4.23,10.58-4.05,14.41.3a9.15,9.15,0,0,1,.47,12,81.6,81.6,0,0,1-6.34,6.69c-4.46,4.46-9,8.86-13.23,13.06,3.18,3.38,6,6.61,9,9.56,5,4.76,5.12,7.75.41,12.71-6.67,7-14.25,12.25-24.09,14-12.78,2.25-23.83-1-33.55-9.35-2.26-1.94-4.38-4-6.47-6l-13.06,12.81c2,.46,3.67.88,5.36,1.21,12.91,2.54,22.88,9.82,31.35,19.47,1.87,2.12,2,5.69.34,7.65-6.91,8.13-14.88,14.47-25.82,16.47-14.94,2.74-27.22-1.89-37.54-12.61a12.92,12.92,0,0,0-2.55-2.33L747.4,565c2.12.49,4.38,1,6.64,1.53,12.13,2.76,21.45,9.91,29.51,19,1.91,2.15,2.15,5.66.47,7.64-6.78,8-14.59,14.38-25.3,16.47-13.72,2.68-25.61-.8-35.8-10.22C721,597.67,719.5,595.53,717.23,592.91Z"/><path class="cls-2" d="M878.34,423.5c.41,2.57-.74,4.68-2.47,6.49-2.79,2.93-5.66,5.79-8.52,8.65q-13.9,13.92-27.83,27.82c-4.73,4.69-11.27,4.54-15.08-.25a9.4,9.4,0,0,1,.67-12.79c5.69-5.87,11.54-11.59,17.32-17.37,6.24-6.24,12.44-12.53,18.74-18.71,4.53-4.45,9.58-4.81,13.87-1.11C877.2,418.1,878.67,420.37,878.34,423.5Z"/></g></svg>