<svg xmlns="http://www.w3.org/2000/svg" viewBox="0 0 1417.32 1417.32"><defs><style>.cls-1{fill:#168754;}</style></defs><title>Artboard 20_1</title><g id="Chat"><path class="cls-1" d="M715.66,335.45c119.18,2.46,233.82,37.95,325.86,130.92,126.5,127.76,121.7,318.28-10.67,440.15-75,69-164.38,104.33-264.61,116.49-74.84,9.08-147.29.22-219-21.39-7.85-2.36-19.5.13-26.72,4.64-55.94,35-114.24,63.35-180.85,70.85-6.34.71-12.68,1.68-19,1.86-13.43.38-27.85,2.55-35.19-13.15-7-15,2-25.22,10.43-36.32,12.87-16.94,27-33.67,36-52.64,11.8-24.8,20.31-51.38,27.73-77.9,2.18-7.76-1.62-19.87-6.92-26.68C242.75,731.28,265,549.19,406,436.88,494.26,366.57,595.89,337,715.66,335.45Z"/></g></svg>