<svg xmlns="http://www.w3.org/2000/svg" viewBox="0 0 1417.32 1417.32"><defs><style>.cls-1{fill:#168754;}.cls-2{fill:#fff;}.cls-3{fill:#30b670;}</style></defs><title>Artboard 10</title><g id="Order_Delivered" data-name="Order Delivered"><path class="cls-1" d="M1133.86,984.76c-24.33,0-47,.39-69.61-.18-10.55-.26-15.46,1.38-16.75,14.11-6.64,65.76-60.15,113-126.14,112.9-66.49-.08-118.53-47-125.57-113.33-.8-7.59-1.4-13.72-11.81-13.65-52.18.38-104.36.24-156.55.34-1.33,0-2.66.7-4,1.09-3,13.41-4.78,27-9,39.86-19,57.07-71.46,90.41-132.54,85-58.1-5.13-102.75-47.17-112-105.42-3.28-20.74-3.28-20.74-24.06-20.75H283.46V430.49h16.36c172.69,0,345.37.2,518.05-.36,15.1-.05,18.23,4.85,17.83,18.64-.92,31.76.18,63.58-.54,95.34-.27,11.56,3.69,14.65,14.71,14.34,24.65-.71,49.37-1,74,.21,8.16.39,18.11,3.71,23.79,9.24q68.26,66.51,134.82,134.78c5.23,5.35,8.55,14.89,8.65,22.55.74,53.12.67,106.26.18,159.39-.11,11.53,3,15.8,15.16,15.54,27.4-.58,27.41,0,27.41,28.07Zm-128.14-212.6c3.79-16.27,2.24-28.16-9.77-39-18.27-16.47-37.15-33-52-52.37-24.68-32.22-55.28-43.6-94.7-38.26C838,644.08,835,646.8,835.19,657.62c.64,28.88.22,57.78.22,86.68,0,27.86,0,27.86,27.55,27.86ZM430,985.51c0,36.47,28.47,64.86,64.93,64.78,35.49-.09,64.9-29.88,64.72-65.58-.17-35.49-29.9-64.76-65.56-64.55C457.24,920.39,430,948.17,430,985.51Zm427.12-.81c-.14,36.43,28,65.23,64,65.58,35.49.34,65.08-29.09,65.13-64.78,0-36.53-27.94-65-64.34-65.33C887.2,919.82,854.66,949.2,857.13,984.7Z"/><path class="cls-2" d="M1005.72,772.16H863c-27.55,0-27.55,0-27.55-27.86,0-28.9.42-57.8-.22-86.68-.23-10.82,2.79-13.54,14.06-15.07,39.42-5.34,70,6,94.7,38.26,14.85,19.38,33.73,35.9,52,52.37C1008,744,1009.51,755.89,1005.72,772.16Z"/><path class="cls-2" d="M430,985.51c0-37.34,27.23-65.12,64.09-65.35,35.66-.21,65.39,29.06,65.56,64.55.18,35.7-29.23,65.49-64.72,65.58C458.48,1050.37,430,1022,430,985.51Z"/><path class="cls-2" d="M857.13,984.7c-2.47-35.5,30.07-64.88,64.82-64.53,36.4.36,64.38,28.8,64.34,65.33,0,35.69-29.64,65.12-65.13,64.78C885.12,1049.93,857,1021.13,857.13,984.7Z"/><path class="cls-3" d="M492,796.39c-2.34,2.68-3.74,4.49-5.33,6.1-10.11,10.18-20.12,20.47-30.44,30.44a16,16,0,0,1-26.61-7c-1.82-6.35-.06-11.92,4.65-16.64,11.54-11.55,23-23.17,34.76-35-.7-.66-1.58-1.55-2.51-2.38-22.32-20-23.23-51.67-2.1-72.84,1.55-1.55,3.07-3.14,4.67-4.64,3.81-3.57,7.81-3.6,11.67-.07,11.9,10.89,20.79,23.55,23.53,39.85a18.37,18.37,0,0,0,.72,2.31L520.23,721c-1.3-1.12-2.89-2.32-4.28-3.71-19.54-19.72-19.55-50-.06-69.73,1.82-1.84,3.6-3.73,5.52-5.47,3.6-3.26,7.58-3.21,11.23,0,12.51,11.11,21.21,24.44,24,41.19a4.92,4.92,0,0,0,.19.77l15.44-15.54a63.6,63.6,0,0,1-5.92-5.23c-18-19.8-17.24-48.94,1.68-67.94,1.61-1.62,3.22-3.26,4.86-4.85,4.06-3.93,8.3-4,12.36-.07,3.22,3.12,6.26,6.42,9.33,9.69a32.66,32.66,0,0,1,2.1,2.87c1.64-1.44,2.78-2.34,3.81-3.37,6.36-6.32,12.73-12.63,19-19,6.72-6.83,13.71-5.05,17.82-1.32,5.09,4.62,5.27,12.08.18,17.3q-13.24,13.6-26.77,26.92c-2,2-2.83,3.84-2.24,6.83,1.8,9.09,1.13,18.21-.7,27.26-.12.56-.13,1.15-.24,2.2,1.32-.16,2.45-.22,3.53-.46a62.19,62.19,0,0,1,25.16-.68c2.48.46,4.17-.7,5.8-2.32q13.74-13.74,27.56-27.4c5.27-5.21,13-5,17.72.37,3.81,4.33,4.2,10.27.59,14.79a102.64,102.64,0,0,1-7.8,8.24c-5.49,5.48-11,10.9-16.28,16.07,3.9,4.15,7.35,8.13,11.12,11.76,6.09,5.86,6.31,9.53.5,15.64-8.2,8.63-17.53,15.08-29.64,17.21-15.72,2.77-29.33-1.25-41.28-11.51-2.78-2.39-5.39-5-8-7.39l-16.08,15.76c2.46.56,4.52,1.08,6.6,1.49,15.89,3.12,28.15,12.08,38.58,23.95,2.3,2.61,2.47,7,.42,9.42-8.5,10-18.31,17.8-31.77,20.27-18.38,3.36-33.49-2.33-46.2-15.53A16.46,16.46,0,0,0,545,746.6l-16,15.49,8.16,1.89c14.93,3.39,26.39,12.19,36.32,23.34,2.35,2.64,2.64,7,.57,9.4-8.33,9.84-18,17.69-31.12,20.26-16.89,3.3-31.53-1-44.07-12.57C496.62,802.26,494.74,799.62,492,796.39Z"/><path class="cls-3" d="M690.2,587.93c.5,3.16-.92,5.76-3,8-3.44,3.61-7,7.12-10.49,10.64q-17.1,17.13-34.25,34.24c-5.81,5.77-13.86,5.58-18.55-.31a11.54,11.54,0,0,1,.83-15.74c7-7.23,14.19-14.26,21.31-21.38,7.67-7.68,15.3-15.41,23.06-23,5.58-5.48,11.79-5.92,17.06-1.37C688.79,581.29,690.6,584.08,690.2,587.93Z"/></g></svg>