<svg xmlns="http://www.w3.org/2000/svg" viewBox="0 0 1417.32 1417.32"><defs><style>.cls-1{fill:#168754;}.cls-2{fill:#fff;}</style></defs><title>Artboard 15</title><g id="fund"><path class="cls-1" d="M739.2,1024.67q-157.87,0-315.74,0c-62.46,0-107.87-44.41-108-107.17q-.63-263.47,0-526.95c.12-63.16,44.33-107.85,107.39-108q317.88-.6,635.75-.06c33.41,0,52.78,19.15,53,50.62.19,32.42-19.35,51.52-54.19,51.55q-294.42.25-588.82.2c-9.87,0-21.61-1.5-29.11,3.15-8.93,5.53-20.28,17.53-19.5,25.66.93,9.72,12.28,20.23,21.66,26.69,5.95,4.09,16.55,1.75,25.06,1.76q290.14.09,580.28,0c75.73,0,118.16,41.87,118.18,116.89,0,117.34-1.2,234.69.45,352,1,72.66-56.79,116.16-114.87,114.48C946.91,1022.52,843,1024.67,739.2,1024.67Zm266.74-237.18c32.76.35,56.49-22.09,56.55-53.47a55.58,55.58,0,0,0-55.55-55.68c-30.88-.12-55.22,24.5-55.1,55.75S974.08,787.15,1005.94,787.49Z"/><path class="cls-2" d="M1005.94,787.49c-31.86-.34-54-22.17-54.1-53.4s24.22-55.87,55.1-55.75A55.58,55.58,0,0,1,1062.49,734C1062.43,765.4,1038.7,787.84,1005.94,787.49Z"/></g></svg>