<svg xmlns="http://www.w3.org/2000/svg" viewBox="0 0 1417.32 1417.32"><defs><style>.cls-1{fill:#168754;}.cls-2{fill:#30b670;}</style></defs><title>Artboard 6</title><g id="Handling_Fee" data-name="Handling Fee"><path class="cls-1" d="M1175,657.44c0,46.88-.16,93.76,0,140.64.17,36.86-12,68.07-38.73,94.18-44.34,43.37-88,87.45-131.62,131.53-16.61,16.79-36.22,25-59.73,24.79-28.41-.22-56.83.09-85.24-.08-39.72-.24-65-25-65.44-64.57-.4-35-.31-70.08,0-105.12.32-38.71,14.46-72.23,41-100,31.08-32.5,63-64.19,94.81-96,19-19,45.28-20.41,62.26-3.85,17.27,16.86,16.16,44.08-2.94,63.19-19.41,19.4-39.14,38.47-58.69,57.73-9.89,9.74-13.71,21.38-10.06,34.93,3.75,13.91,13.89,22.94,27.31,23.09,10.3.11,23.14-3.38,30.55-10.05,23.87-21.51,45.89-45.09,68.36-68.13,17.08-17.52,24-38.81,23.9-63.25-.4-68.19-.26-136.38-.08-204.57.08-29.95,17.36-51.86,43.59-56.26,31.23-5.23,59.09,16.3,60.2,48.35,1.17,34.05.44,68.17.52,102.27C1175.05,623.34,1175,640.39,1175,657.44Z"/><path class="cls-1" d="M428,610.12c0,34.1-.11,68.21,0,102.31.11,26.53,7.51,50.33,26.82,69.54,22.15,22,43.87,44.55,66.45,66.15,15.37,14.71,34.15,14.9,48.51,2.07,14.88-13.29,15.27-33.54.14-49-19.55-20-39.75-39.28-59.47-59.07-18.46-18.51-20-45.63-3.77-62.29,16.94-17.44,43.86-16.55,63.34,2.92,31.48,31.45,62.91,63,93.63,95.15,28.31,29.65,42.75,65.2,42.24,106.63-.4,33.16,0,66.32-.1,99.48-.1,37.36-25.69,63.86-62.8,64.41-30.31.45-60.63.13-90.94.1-22,0-40.59-8.26-56-23.68q-67.8-67.78-135.44-135.74c-23-23.22-35.26-51.75-35.45-84.21-.59-99.47-.35-198.94-.13-298.42.07-28.73,23.2-51.85,51-52.16,29.14-.33,51.81,22.3,51.9,52C428.06,541,428,575.54,428,610.12Z"/><path class="cls-2" d="M750.08,711.39c-11.36-6-22.91-9.15-30.47-16.47-42.48-41.19-84.16-83.21-125.79-125.27-18.05-18.24-18.19-43.9-.05-62.31q61.82-62.71,124.51-124.57c19.18-18.95,44-18.8,63.11.15q62.07,61.45,123.55,123.51c19.28,19.43,19.5,45,.33,64.36-40.94,41.4-81.93,82.78-123.76,123.27C773.6,701.71,761.65,705.19,750.08,711.39Z"/><path d="M749.89,619.2c-43.83,0-79.12-35.59-79.11-79.75,0-43,36.1-78.93,79.53-78.62,44.22.31,78.93,36.1,78.87,80.05C829.11,583.84,793.34,619.2,749.89,619.2Zm61.39-79.07c0-34.2-27-61.49-61-61.52S689,505.71,688.49,539a61.68,61.68,0,0,0,61.3,62.68C783.79,602,811.28,574.29,811.28,540.13Z"/><path d="M763.58,521.73c-4.16-.58-8.3-1.5-12.46-1.6a28,28,0,0,0-9.06,1.63c-1.25.41-2.94,2.28-2.84,3.34a5.53,5.53,0,0,0,2.9,3.82c4.1,1.75,8.47,2.83,12.63,4.45a83.27,83.27,0,0,1,11.82,5.34c11.91,7,11.84,24.66,0,31.85a9.1,9.1,0,0,1-2.12,1.19c-5.07,1.41-8.54,3.58-7.75,10,.39,3.14-3.37,5.33-7,5.21s-6.9-2.46-6.51-5.88c.73-6.34-2.47-8.27-7.83-9.09a24.12,24.12,0,0,1-6.48-2.38,7.28,7.28,0,0,1-4.06-8.82c1.11-3.66,3.8-5.38,7.47-4.74s7,2.2,10.56,2.74c4.08.62,8.35,1.15,12.37.56,2.12-.31,3.89-3.08,5.81-4.74-1.64-1.74-3-4.22-5-5.08-5.33-2.28-11-3.73-16.47-5.76-5.68-2.12-10.9-4.92-13.43-11-4.36-10.51.27-20.9,12-25.36,3.72-1.42,5.1-3,4.93-6.91-.19-4.49,2.79-7.26,7-7.25s7.22,2.86,6.89,7.27,1.42,6,5.51,6.51,7.73,1.95,8.22,6.93C771.1,518.71,768.36,521.74,763.58,521.73Z"/></g></svg>