<?xml version="1.0" encoding="UTF-8"?>
<svg id="Layer_14" data-name="Layer 14" xmlns="http://www.w3.org/2000/svg" viewBox="0 0 1417.32 1417.32">
  <defs>
    <style>
      .cls-1 {
        fill: #fff;
      }

      .cls-2 {
        fill: #30b670;
      }

      .cls-3 {
        fill: #168754;
      }
    </style>
  </defs>
  <path class="cls-1" d="m708.25,1080.68c104.32,0,208.64.02,312.96,0,67.69-.02,112.6-44.68,112.62-112.12.04-173.08.04-346.15,0-519.23-.01-66.33-43-111.71-109.05-111.91-211.01-.61-422.03-.67-633.04.04-65.18.22-108.2,45.74-108.22,110.95-.07,173.67-.09,347.34.01,521.01.04,66.64,44.97,111.22,111.75,111.24,104.32.04,208.64.01,312.96.01Z"/>
  <path class="cls-3" d="m708.25,1080.68c-104.32,0-208.64.03-312.96-.01-66.78-.03-111.71-44.61-111.75-111.24-.11-173.67-.09-347.34-.01-521.01.03-65.21,43.05-110.73,108.22-110.95,211.01-.72,422.03-.65,633.04-.04,66.05.19,109.03,45.57,109.05,111.91.03,173.08.04,346.15,0,519.23-.02,67.44-44.93,112.1-112.62,112.12-104.32.03-208.64,0-312.96,0Zm346.69-105.47c1-10.52,1.9-15.57,1.9-20.63.07-168.31.1-336.63,0-504.94-.01-26.08-9.9-35.81-37.21-35.83-207.43-.14-414.86-.14-622.29,0-27.5.02-37.23,10.07-37.25,37.87-.11,167.13-.08,334.26.02,501.39,0,5.95,1.29,11.9,2.54,22.77,6.91-8.48,10.74-12.7,14.04-17.3,41.77-58.22,83.24-116.65,125.26-174.69,19.79-27.33,48.66-26.87,68.71.66,12.54,17.22,24.84,34.64,36.41,52.52,7.79,12.05,13.26,14.31,23.12,1.19,40.57-53.97,82.11-107.21,123.12-160.84,20.96-27.41,49.41-27.42,70.65.15,63.26,82.08,126.55,164.14,189.92,246.13,12.41,16.06,25.27,31.76,41.04,51.55Z"/>
  <path class="cls-2" d="m444.08,573.79c.98-44.7,35.91-77.69,80.73-76.25,43.28,1.39,76.79,36.79,75.71,79.98-1.09,43.64-37.06,77.42-81.31,76.37-43.61-1.04-76.1-35.68-75.13-80.11Z"/>
</svg>