<svg id="Information" xmlns="http://www.w3.org/2000/svg" viewBox="0 0 1417.32 1417.32"><defs><style>.cls-1{fill:#168754;}.cls-2{fill:#fff;}</style></defs><title>Artboard 1</title><path class="cls-1" d="M707.87,1133.86c-234.94-.08-424.76-190-424.4-424.88.35-232.8,184.33-426,426.1-425.51,241.26.53,424.84,194.17,424.29,428.91C1133.31,944.83,942.55,1133.93,707.87,1133.86Zm.4-50.88c198.64,3,373.1-161.86,375-370,1.89-205.57-166.76-375.23-366.65-378.8C511.36,330.57,335.55,497,333.8,705.64,332,918,509.21,1086,708.27,1083Z"/><path class="cls-2" d="M708.27,1083C509.21,1086,332,918,333.8,705.64,335.55,497,511.36,330.57,716.63,334.23c199.89,3.57,368.54,173.23,366.65,378.8C1081.37,921.12,906.91,1085.94,708.27,1083Zm-25-454.71q0,64.9,0,129.8c0,15.49,5.54,26.77,22.57,28.46,18.15,1.81,27.63-8.19,27.7-30.26q.36-127.12.1-254.26c0-21.88-7.91-31.18-25.12-31.17S683.38,480.5,683.29,502C683.12,544.11,683.24,586.19,683.26,628.27Zm25.16,305.06c22.51,0,37.61-15.21,37.51-37.89s-15.65-38.06-38.06-37.6c-22,.45-36.24,14.95-36.49,37.26C671.14,918.05,685.89,933.28,708.42,933.33Z"/><path class="cls-1" d="M683.25,628.27c0-42.08-.13-84.16,0-126.24.09-21.53,8.14-31.18,25.22-31.19s25.08,9.29,25.12,31.17q.2,127.14-.1,254.26c-.07,22.07-9.55,32.07-27.7,30.26-17-1.69-22.58-13-22.57-28.46Q683.28,693.17,683.25,628.27Z"/><path class="cls-1" d="M708.42,933.33c-22.53-.05-37.28-15.28-37-38.23.25-22.31,14.44-36.81,36.49-37.26,22.41-.46,38,14.91,38.06,37.6S730.93,933.37,708.42,933.33Z"/></svg>