<?xml version="1.0" encoding="UTF-8"?>
<svg id="Logo" xmlns="http://www.w3.org/2000/svg" viewBox="0 0 1417.32 1417.32">
  <defs>
    <style>
      .cls-1 {
        fill: #168754;
      }
    </style>
  </defs>
  <path class="cls-1" d="m495.74,1000.06c-7.58,8.72-12.14,14.58-17.33,19.81-32.85,33.1-65.37,66.55-98.92,98.92-28.83,27.82-75.59,15.33-86.48-22.7-5.91-20.64-.2-38.74,15.12-54.07,37.5-37.53,74.76-75.3,112.98-113.83-2.28-2.17-5.16-5.04-8.18-7.75-72.51-65.13-75.47-167.89-6.8-236.71,5.03-5.04,9.95-10.21,15.15-15.07,12.39-11.59,25.38-11.7,37.94-.21,38.65,35.36,67.55,76.52,76.46,129.47.42,2.49,1.49,4.86,2.33,7.51,16.22-16.47,32.15-32.65,49.65-50.42-4.24-3.65-9.42-7.53-13.92-12.07-63.49-64.06-63.54-162.5-.21-226.59,5.92-5.99,11.71-12.13,17.95-17.77,11.7-10.58,24.65-10.44,36.51.09,40.63,36.09,68.91,79.41,78.1,133.86.21,1.24.61,2.44.62,2.5,15.89-15.99,32.03-32.24,50.17-50.5-5.26-4.6-12.98-10.13-19.23-17.01-58.48-64.35-56.03-159.04,5.45-220.77,5.26-5.28,10.47-10.6,15.82-15.78,13.18-12.76,26.95-13.06,40.17-.22,10.45,10.14,20.32,20.88,30.3,31.49,2.43,2.58,4.24,5.74,6.85,9.34,5.31-4.68,9.03-7.63,12.37-10.95,20.67-20.55,41.38-41.06,61.83-61.83,21.84-22.19,44.56-16.41,57.92-4.27,16.54,15.01,17.12,39.26.6,56.22-28.69,29.46-57.75,58.56-87,87.47-6.58,6.51-9.2,12.47-7.28,22.19,5.85,29.56,3.66,59.19-2.29,88.59-.37,1.84-.41,3.76-.75,7.17,4.28-.55,7.94-.72,11.46-1.51,27.12-6.08,54.38-7.29,81.77-2.2,8.04,1.5,13.54-2.27,18.83-7.56,29.78-29.75,59.58-59.49,89.56-89.05,17.15-16.91,42.3-16.21,57.61,1.2,12.37,14.07,13.63,33.39,1.9,48.07-7.64,9.57-16.65,18.08-25.34,26.76-17.84,17.82-35.88,35.45-52.91,52.23,12.69,13.5,23.88,26.42,36.15,38.22,19.79,19.03,20.49,30.98,1.62,50.84-26.65,28.05-56.98,48.98-96.32,55.91-51.09,9-95.3-4.07-134.15-37.4-9.05-7.77-17.51-16.22-25.88-24.02-17.23,16.9-34.12,33.45-52.23,51.21,7.98,1.81,14.67,3.51,21.44,4.84,51.62,10.14,91.49,39.26,125.38,77.84,7.45,8.48,8.01,22.76,1.34,30.6-27.61,32.51-59.51,57.86-103.24,65.87-59.73,10.94-108.84-7.58-150.12-50.45-3.97-4.12-7.87-8.3-10.21-9.33-17.22,16.7-34.44,33.41-51.88,50.33,8.45,1.95,17.48,4.07,26.53,6.13,48.51,11.02,85.77,39.62,118.02,75.86,7.65,8.59,8.6,22.62,1.88,30.56-27.1,31.99-58.37,57.48-101.16,65.85-54.88,10.73-102.44-3.19-143.19-40.87-7.56-6.99-13.66-15.56-22.73-26.06Z"/>
  <path class="cls-1" d="m1140.01,322.61c1.61,10.29-2.98,18.74-9.89,25.99-11.16,11.71-22.63,23.12-34.06,34.57-37.07,37.12-74.09,74.28-111.31,111.25-18.89,18.76-45.06,18.16-60.29-.99-12.41-15.59-11.81-36.19,2.69-51.16,22.75-23.48,46.13-46.35,69.24-69.47,24.96-24.96,49.75-50.09,74.94-74.8,18.13-17.79,38.32-19.23,55.45-4.43,8.65,7.48,14.51,16.55,13.23,29.04Z"/>
</svg>