<svg xmlns="http://www.w3.org/2000/svg" viewBox="0 0 1417.32 1417.32"><defs><style>.cls-1{fill:#168754;}.cls-2{fill:#30b670;}</style></defs><title>Artboard 8</title><g id="Order_Total" data-name="Order Total"><path class="cls-1" d="M710.45,265.67c-233.18-1.66-426.94,191.17-427,422.14-.06,237.17,189.44,428.24,424.73,428.24,233.25,0,425.32-189.85,425.66-420.52C1134.19,459.5,947.84,267.35,710.45,265.67ZM707.65,1022c-188.8-1.64-331.61-156.17-329.1-336.59C381,506.68,528,361,710.4,361.16c182.13.13,327.39,146.69,327.38,330.31C1037.77,874.92,890.17,1023.59,707.65,1022Z"/><path class="cls-2" d="M710.4,361.16C528,361,381,506.68,378.55,685.41c-2.51,180.42,140.3,335,329.1,336.59,182.52,1.59,330.12-147.08,330.13-330.53C1037.79,507.85,892.53,361.29,710.4,361.16Zm87.4,493.71c-3.73,2.27-7.32,5.28-11.39,6.41-27.23,7.55-45.87,19.24-41.61,53.56,2.1,16.87-18.11,28.64-37.81,28-19.49-.66-37-13.18-34.92-31.55,3.9-34-13.29-44.42-42.06-48.82-12-1.83-23.63-7.48-34.77-12.8-18.87-9-27.6-28.31-21.83-47.32,6-19.67,20.39-28.93,40.09-25.47,19.18,3.36,37.51,11.8,56.72,14.72,21.91,3.33,44.83,6.18,66.41,3,11.4-1.67,20.87-16.55,31.21-25.47-8.84-9.35-16-22.64-26.84-27.28-28.66-12.26-59.19-20-88.46-31-30.48-11.37-58.5-26.37-72.06-59.06-23.41-56.44,1.45-112.21,64.5-136.17,20-7.59,27.38-16.19,26.49-37.08-1-24.1,15-39,37.33-38.94,22.2.05,38.78,15.34,37,39s7.63,32.41,29.6,35,41.5,10.47,44.12,37.21c2.51,25.61-12.19,41.9-37.86,41.81-22.29-3.08-44.53-8.06-66.88-8.58-16.22-.37-33,3.72-48.64,8.76-6.71,2.17-15.77,12.23-15.24,17.92.7,7.45,8.39,17.45,15.57,20.51,22,9.4,45.49,15.2,67.81,23.93,21.61,8.45,43.56,16.95,63.46,28.67C861.67,721.53,861.27,816.3,797.8,854.87Z"/><path class="cls-1" d="M797.8,854.87c-3.73,2.27-7.32,5.28-11.39,6.41-27.23,7.55-45.87,19.24-41.61,53.56,2.1,16.87-18.11,28.64-37.81,28-19.49-.66-37-13.18-34.92-31.55,3.9-34-13.29-44.42-42.06-48.82-12-1.83-23.63-7.48-34.77-12.8-18.87-9-27.6-28.31-21.83-47.32,6-19.67,20.39-28.93,40.09-25.47,19.18,3.36,37.51,11.8,56.72,14.72,21.91,3.33,44.83,6.18,66.41,3,11.4-1.67,20.87-16.55,31.21-25.47-8.84-9.35-16-22.64-26.84-27.28-28.66-12.26-59.19-20-88.46-31-30.48-11.37-58.5-26.37-72.06-59.06-23.41-56.44,1.45-112.21,64.5-136.17,20-7.59,27.38-16.19,26.49-37.08-1-24.1,15-39,37.33-38.94,22.2.05,38.78,15.34,37,39s7.63,32.41,29.6,35,41.5,10.47,44.12,37.21c2.51,25.61-12.19,41.9-37.86,41.81-22.29-3.08-44.53-8.06-66.88-8.58-16.22-.37-33,3.72-48.64,8.76-6.71,2.17-15.77,12.23-15.24,17.92.7,7.45,8.39,17.45,15.57,20.51,22,9.4,45.49,15.2,67.81,23.93,21.61,8.45,43.56,16.95,63.46,28.67C861.67,721.53,861.27,816.3,797.8,854.87Z"/></g></svg>