<svg xmlns="http://www.w3.org/2000/svg" viewBox="0 0 1417.32 1417.32"><defs><style>.cls-1{fill:#30b670;}</style></defs><title>Artboard 12</title><g id="Received"><path d="M283.48,1028.06a4.34,4.34,0,0,1-.46-1.32q-.06-92.61,0-185.21a14.46,14.46,0,0,1,.33-2.26c1.63-.89,3.26-.57,4.83-.57q18.22.06,36.47.17c14.39.1,28.79.09,43.16-.93,11.09-.78,21.31-4.21,30.17-11Q417.12,812.1,436.1,797q28.41-22.47,56.73-45a59.17,59.17,0,0,1,6.64-4.72A44.22,44.22,0,0,1,522.29,741c22.07,0,44.14-.13,66.21-.15q84-.06,167.94-.11c28.15,0,56.3-.29,84.45-.38A59.77,59.77,0,0,1,850,741c5.31.79,8.69,3.84,9.61,9.25a31.25,31.25,0,0,1,.51,5.71c-.06,4.31-.34,8.62-.48,12.94-.43,14.07-.59,28.14.24,42.21.19,3.19.25,6.39.32,9.59a28.84,28.84,0,0,1-.13,3.83c-.8,7.06-4.15,10.57-11.24,11.58a55.1,55.1,0,0,1-8.12.53c-26.71-.12-53.41-.34-80.12-.46Q722.4,836,684.25,836a58.49,58.49,0,0,0-9,.77c-5.07.8-7.71,4.16-8.7,9a14.44,14.44,0,0,0-.28,2.86c0,8.15-.28,16.31.86,24.43.06.47.09.95.16,1.43,1.12,7.39,4.41,10.68,11.94,11.38,5.09.48,10.21.73,15.32.76q26.4.17,52.78.1,44.63-.06,89.25-.22c7.51,0,15-.38,22.54-.45a60.69,60.69,0,0,0,33.85-10.5q21.33-14.27,42.45-28.84,58-40.1,115.94-80.3c5.12-3.54,10.44-6.81,15.68-10.19.65-.42,1.36-.75,2.26-1.24a21,21,0,0,1,2,2.11c14.86,21,30.25,41.66,44.43,63.16,4,6,8.41,11.67,12.57,17.53a45.77,45.77,0,0,1,3.82,6.07,10.17,10.17,0,0,1-1.81,12.39,43.7,43.7,0,0,1-6.55,5.58c-5.62,3.95-11.38,7.71-17.07,11.57-38.51,26.12-77.13,52.06-115.45,78.45-20.67,14.23-40.93,29.08-61.17,43.93-16.27,11.93-33.72,21.36-53.21,26.81a180.64,180.64,0,0,1-29.17,5.46c-12.93,1.42-25.88,1.09-38.83,1-28.94-.14-57.89-.37-86.84-.46q-99.09-.28-198.16-.46c-33.27-.05-66.54.07-99.81.13l-108.91.24c-9,0-17.92.08-26.87.06C286.63,1028.59,285,1029,283.48,1028.06Z"/><path d="M688.6,718.78c-.11-.93-.31-1.86-.34-2.8-.58-21.21-.24-255.69.41-260.75a22.88,22.88,0,0,1,2.62-.39c1.43-.07,2.88,0,4.32,0h166q77.49,0,155-.06c23.19,0,46.38-.19,69.57-.25a54.28,54.28,0,0,1,7.65.46c3.73.51,5.67,2.52,6.17,6.26a43.87,43.87,0,0,1,.24,5.74c0,19.35-.1,38.71-.11,58.06q0,78.69,0,157.38c0,8.8,0,17.59,0,26.39,0,1.44,0,2.88-.11,4.31-.39,3.86-2.12,5.78-5.94,6.42a29.28,29.28,0,0,1-4.78.22l-223.6-.08q-83.25,0-166.5,0C695.72,719.64,692.19,719.84,688.6,718.78Z"/><path d="M909.67,357.29a59.85,59.85,0,0,1,12-1c13,0,25.89,0,38.83,0,22.7,0,45.39-.11,68.08-.1a49.87,49.87,0,0,1,8.08.75,14.46,14.46,0,0,1,8.82,5.35c.71.86,1.36,1.78,2,2.69q23.13,32.67,46.23,65.35c1.55,2.2,3.28,4.31,4.14,6.92-1.24,1.17-2.73,1.07-4.12,1.15-2.71.16-5.43.21-8.14.22l-139,.05c-9.1,0-18.21.07-27.32,0a27.54,27.54,0,0,1-6.13-.79c-2.45-.59-3.65-2.44-3.87-4.9-.08-1-.07-1.92-.07-2.88q0-34,.09-68.08C909.23,360.48,909,358.87,909.67,357.29Z"/><path d="M689.94,437.27a51.46,51.46,0,0,1,4.81-7.66q17.06-24.06,34.11-48.13c4.15-5.87,8.36-11.71,12.29-17.73,3.29-5,7.85-7.31,13.68-7.45,1.91-.05,3.83,0,5.75,0q52.53,0,105.06-.05a45.24,45.24,0,0,1,7.64.41c3.86.67,5.11,2.31,5.25,6.22.08,2.24,0,4.48,0,6.72q0,30,0,60c0,1.28,0,2.56,0,3.84a4.82,4.82,0,0,1-4,4.77,17.86,17.86,0,0,1-4.26.5c-4,.06-8,0-12,0q-78.91,0-157.83,0A29.09,29.09,0,0,1,689.94,437.27Z"/><path class="cls-1" d="M849.92,645.61c-1.52,1.75-2.43,2.93-3.47,4-6.6,6.64-13.12,13.35-19.86,19.85a10.4,10.4,0,0,1-17.36-4.55c-1.18-4.15,0-7.78,3-10.86,7.53-7.53,15-15.11,22.67-22.85-.45-.43-1-1-1.64-1.55-14.55-13.08-15.15-33.7-1.36-47.52,1-1,2-2,3-3,2.49-2.33,5.09-2.35,7.61,0,7.76,7.1,13.56,15.36,15.35,26a12.36,12.36,0,0,0,.47,1.51l10-10.12c-.86-.73-1.9-1.51-2.8-2.42a31.86,31.86,0,0,1,0-45.48c1.19-1.21,2.35-2.44,3.6-3.57,2.35-2.12,5-2.1,7.33,0,8.16,7.24,13.83,15.94,15.68,26.87a4.51,4.51,0,0,0,.12.5l10.07-10.14a42.83,42.83,0,0,1-3.86-3.41,31.7,31.7,0,0,1,1.1-44.31c1-1.06,2.1-2.13,3.17-3.17,2.65-2.56,5.41-2.62,8.06-.05,2.1,2,4.08,4.19,6.08,6.33a17.86,17.86,0,0,1,1.38,1.87c1.07-.94,1.81-1.53,2.48-2.2,4.15-4.12,8.31-8.24,12.41-12.41,4.39-4.45,9-3.29,11.63-.86,3.32,3,3.43,7.88.12,11.29q-8.64,8.87-17.47,17.56a4.36,4.36,0,0,0-1.46,4.45,44.75,44.75,0,0,1-.46,17.78c-.07.37-.08.75-.15,1.44.86-.11,1.6-.14,2.3-.3a40.38,40.38,0,0,1,16.42-.44c1.61.3,2.71-.46,3.78-1.52q9-9,18-17.87a7.75,7.75,0,0,1,11.56.24,7.33,7.33,0,0,1,.39,9.65,66.11,66.11,0,0,1-5.09,5.37c-3.58,3.58-7.2,7.11-10.62,10.48,2.55,2.71,4.79,5.31,7.26,7.67,4,3.82,4.11,6.22.32,10.21-5.35,5.63-11.44,9.83-19.33,11.22-10.26,1.81-19.13-.81-26.93-7.51-1.82-1.55-3.51-3.25-5.19-4.82l-10.49,10.28c1.6.37,2.95.71,4.31,1,10.36,2,18.36,7.88,25.16,15.62a5,5,0,0,1,.27,6.14c-5.54,6.53-11.94,11.62-20.72,13.22-12,2.2-21.85-1.52-30.13-10.12a10.26,10.26,0,0,0-2.05-1.87l-10.42,10.1,5.33,1.23c9.74,2.21,17.21,7.95,23.69,15.22a4.93,4.93,0,0,1,.37,6.14c-5.44,6.42-11.71,11.53-20.3,13.21-11,2.16-20.56-.64-28.74-8.2A66.27,66.27,0,0,1,849.92,645.61Z"/><path class="cls-1" d="M979.24,509.63a6.09,6.09,0,0,1-2,5.22c-2.24,2.35-4.55,4.64-6.84,6.94Q959.26,533,948.08,544.12c-3.79,3.76-9.05,3.64-12.11-.2a7.53,7.53,0,0,1,.55-10.27c4.56-4.71,9.25-9.3,13.89-13.94,5-5,10-10.06,15.05-15,3.64-3.57,7.69-3.86,11.13-.89C978.32,505.31,979.5,507.13,979.24,509.63Z"/></g></svg>