<svg xmlns="http://www.w3.org/2000/svg" viewBox="0 0 1417.32 1417.32"><defs><style>.cls-1{fill:#168754;}.cls-2{fill:#fff;}</style></defs><title>Artboard 11</title><g id="Order_En_Route" data-name="Order En Route"><path class="cls-1" d="M740.89,1131.92c-1.28-1.24-2.24-2.06-3.08-3-43.55-47.58-84.33-97.48-123.62-148.61-28-36.42-54.78-73.7-79.89-112.17-26.88-41.19-51.67-83.57-73.36-127.72-11.16-22.72-20.77-46.08-27.81-70.45A302,302,0,0,1,424,627.54a233.8,233.8,0,0,1-2-45.33c3.33-58.68,20.62-112.83,53.65-161.64s76.47-85,129.88-109.52a325.2,325.2,0,0,1,78.16-24.37,302.3,302.3,0,0,1,35.44-4.43,348.38,348.38,0,0,1,36.71-.42c49.6,2.25,96.26,15.13,139.63,39.21q88.44,49.11,132.4,140.49a318.52,318.52,0,0,1,25.62,78.27,276.62,276.62,0,0,1,4.46,58.67c-.75,32.52-7.61,63.85-18.21,94.45a465.64,465.64,0,0,1-27.07,61.92c-25.91,50-55.26,97.89-87.09,144.3-28.64,41.74-59.2,82-90.75,121.62-29.23,36.68-59.73,72.29-90.63,107.57C743.3,1129.41,742.29,1130.43,740.89,1131.92ZM631,599.82a89,89,0,0,0,2.37,22.1c11,49.3,53.67,82.35,97.18,85.88A104.38,104.38,0,0,0,765.52,705c30.32-7.9,53.75-25.37,69.36-52.45,18.33-31.8,19.63-64.8,3.87-98.06-10-21.12-25.57-37.35-45.91-48.88-20.85-11.81-43.22-16.4-67-13.06A106.68,106.68,0,0,0,672.05,516C645.65,537.65,631.84,565.6,631,599.82Z"/><path class="cls-2" d="M631,599.82c.81-34.22,14.62-62.17,41-83.86a106.68,106.68,0,0,1,53.79-23.43c23.78-3.34,46.15,1.25,67,13.06,20.34,11.53,35.9,27.76,45.91,48.88,15.76,33.26,14.46,66.26-3.87,98.06-15.61,27.08-39,44.55-69.36,52.45a104.38,104.38,0,0,1-34.94,2.82c-43.51-3.53-86.19-36.58-97.18-85.88A89,89,0,0,1,631,599.82Z"/></g></svg>