<svg xmlns="http://www.w3.org/2000/svg" viewBox="0 0 1417.32 1417.32"><defs><style>.cls-1{fill:#168754;}.cls-2{fill:#fff;}</style></defs><title>Artboard 9</title><g id="Order_Processed" data-name="Order Processed"><path class="cls-1" d="M1026.32,1216.8a12.7,12.7,0,0,1-2.09.37q-315.76,0-631.54,0a10.63,10.63,0,0,1-1.91-.33c-1.06-1.66-.75-3.46-.75-5.17q0-24.51,0-49,0-56,0-112,0-55.52,0-111,0-86.74,0-173.5,0-69.69-.11-139.39-.06-37.72-.19-75.45c0-9,0-17.94,0-26.91-.05-9.45-.26-18.9-.23-28.35a92,92,0,0,1,.74-11c.92-7.49,5-11.45,12.51-12.25a62.7,62.7,0,0,1,6.72-.23q68.49.12,137,.29c5.44,0,10.89.05,16.34.05,1.92,0,3.85,0,5.76-.15a15,15,0,0,0,12.8-8.11,52.73,52.73,0,0,0,3.18-7.5,162.29,162.29,0,0,1,18-37.05c17.3-25.82,41.2-42.06,71.35-49.26a157.44,157.44,0,0,1,45.32-3.76c20.27,1.11,39.5,6.22,57.18,16.44C796,394.87,810.68,411,821.41,430.92a150,150,0,0,1,9.62,22,67,67,0,0,0,3.91,9.28c3.42,6.41,8.94,9.82,16.16,10.58a107.61,107.61,0,0,0,13.91.34c9-.24,17.94-.32,26.91-.33q59.36-.08,118.72-.07a29.61,29.61,0,0,1,9,.94,10,10,0,0,1,7.24,7.62,38.09,38.09,0,0,1,1,9.05q-.08,35.8-.06,71.61,0,12,0,24c-.09,26.91-.23,53.83-.26,80.74,0,12.17.24,24.35.22,36.52-.06,43.1-.26,86.19-.3,129.28q-.06,88.2,0,176.39,0,95.16-.09,190.33c0,4.8-.22,9.6-.41,14.4A20.41,20.41,0,0,1,1026.32,1216.8ZM465.44,845.61q0,93.24,0,186.5c0,28.35-.23,56.71-.31,85.07a88.53,88.53,0,0,0,.52,10.55c.92,7.91,4.84,12.94,13.19,14.18a60.37,60.37,0,0,0,8.59.75c13.14,0,26.27-.05,39.41-.08q56.48-.13,113-.24,87.72,0,175.44.08c19.55,0,39.1.11,58.64.16q28.36.06,56.72.15a39,39,0,0,0,10-1.12c4.67-1.2,8-4,9.24-8.81a22.09,22.09,0,0,0,.81-3.74c.25-3.19.51-6.39.5-9.59,0-7.85-.32-15.7-.33-23.54q-.09-86-.1-172.08,0-170.4,0-340.8c0-3.84,0-7.69-.11-11.53a46.5,46.5,0,0,0-1.92-12.79,12.06,12.06,0,0,0-9.37-8.7,33.23,33.23,0,0,0-6.16-.93,210.27,210.27,0,0,0-27.83,1,17.28,17.28,0,0,0-4.19,1,10,10,0,0,0-6.83,7.44,35.36,35.36,0,0,0-.82,6.64c-.16,6.73-.24,13.46-.19,20.19.08,9.29.34,18.57.45,27.86a47.72,47.72,0,0,1-.38,7.18,9.69,9.69,0,0,1-6.61,8.16,25.38,25.38,0,0,1-6.08,1.26,62.69,62.69,0,0,1-6.72.22c-18.1,0-36.21-.18-54.31-.19l-256.19,0c-4.81,0-9.62,0-14.42-.15a67.42,67.42,0,0,1-13.79-1.73,13.45,13.45,0,0,1-10.44-10.17c-.45-1.69-.74-3.43-1-5.16a96.6,96.6,0,0,1-.92-16.3c0-7.69.07-15.38-.09-23.07a82.35,82.35,0,0,0-1-11c-.88-5.57-4-9.34-9.67-10.64-.78-.18-1.55-.44-2.33-.55-9.71-1.4-19.47-1.36-29.24-1.14a15.23,15.23,0,0,0-1.91.17c-6.46,1.07-10.86,4.47-12.37,11.07a21.94,21.94,0,0,0-.63,3.29c-.23,3.52-.48,7-.5,10.56,0,4.8.23,9.6.26,14.41q.09,16.1.07,32.2ZM708.52,540c21.49.06,41.63-15.47,41.67-41.61,0-27.36-22.15-41.92-41.47-42-19.5-.05-41.9,16-42,41.83C666.61,522.73,686.43,540,708.52,540Z"/><path class="cls-2" d="M465.44,845.61v-224q0-16.1-.07-32.2c0-4.81-.28-9.61-.26-14.41,0-3.52.27-7,.5-10.56a21.94,21.94,0,0,1,.63-3.29c1.51-6.6,5.91-10,12.37-11.07a15.23,15.23,0,0,1,1.91-.17c9.77-.22,19.53-.26,29.24,1.14.78.11,1.55.37,2.33.55,5.69,1.3,8.79,5.07,9.67,10.64a82.35,82.35,0,0,1,1,11c.16,7.69.07,15.38.09,23.07a96.6,96.6,0,0,0,.92,16.3c.29,1.73.58,3.47,1,5.16a13.45,13.45,0,0,0,10.44,10.17A67.42,67.42,0,0,0,549,629.65c4.8.19,9.61.15,14.42.15l256.19,0c18.1,0,36.21.14,54.31.19a62.69,62.69,0,0,0,6.72-.22,25.38,25.38,0,0,0,6.08-1.26,9.69,9.69,0,0,0,6.61-8.16,47.72,47.72,0,0,0,.38-7.18c-.11-9.29-.37-18.57-.45-27.86,0-6.73,0-13.46.19-20.19a35.36,35.36,0,0,1,.82-6.64,10,10,0,0,1,6.83-7.44,17.28,17.28,0,0,1,4.19-1,210.27,210.27,0,0,1,27.83-1,33.23,33.23,0,0,1,6.16.93,12.06,12.06,0,0,1,9.37,8.7,46.5,46.5,0,0,1,1.92,12.79c.1,3.84.11,7.69.11,11.53q0,170.4,0,340.8,0,86,.1,172.08c0,7.84.29,15.69.33,23.54,0,3.2-.25,6.4-.5,9.59a22.09,22.09,0,0,1-.81,3.74c-1.28,4.81-4.57,7.61-9.24,8.81a39,39,0,0,1-10,1.12q-28.35-.13-56.72-.15c-19.54,0-39.09-.14-58.64-.16q-87.72-.06-175.44-.08-56.47,0-113,.24c-13.14,0-26.27.12-39.41.08a60.37,60.37,0,0,1-8.59-.75c-8.35-1.24-12.27-6.27-13.19-14.18a88.53,88.53,0,0,1-.52-10.55c.08-28.36.29-56.72.31-85.07Q465.51,938.86,465.44,845.61ZM840.92,732.84a17.6,17.6,0,0,0-2,1.35c-3.7,3.3-7.51,6.5-11,10q-61.65,61-123.22,122.09-14.16,14-28.37,28a70.94,70.94,0,0,1-7.31,6.21c-3.94,2.92-8.07,2.88-12-.09a64,64,0,0,1-6.88-6C642,886.26,634,878,625.87,869.73c-13-13.24-26.15-26.39-39.13-39.69-3.36-3.44-7.45-4.81-12-5.37a9.22,9.22,0,0,0-7.6,2.2c-1.08,1-2.22,1.84-3.32,2.78-14.9,12.66-28.9,26.3-43.17,39.64a11.68,11.68,0,0,0-1.18,1.45c.71,1.85,2.26,2.81,3.51,4q38.58,36.82,77.2,73.62,30.94,29.5,61.92,59c1.12,1.07,2.09,2.41,3.85,2.94,1.09-1,2.16-1.95,3.16-3,4-4,7.86-8,11.8-12l162.64-164.9q21.93-22.25,43.84-44.5c1.08-1.1,2.48-2,2.86-4.09Q866.48,758,842.54,734A12.19,12.19,0,0,0,840.92,732.84Z"/><path class="cls-2" d="M708.52,540c-22.09,0-41.91-17.24-41.81-41.75.11-25.86,22.51-41.88,42-41.83,19.32.05,41.51,14.61,41.47,42C750.15,524.5,730,540,708.52,540Z"/><path class="cls-1" d="M840.92,732.84a12.19,12.19,0,0,1,1.62,1.16q23.91,24,47.73,47.87c-.38,2.07-1.78,3-2.86,4.09q-21.9,22.27-43.84,44.5L680.93,995.36c-3.94,4-7.85,8-11.8,12-1,1-2.07,1.95-3.16,3-1.76-.53-2.73-1.87-3.85-2.94q-31-29.49-61.92-59-38.61-36.81-77.2-73.62c-1.25-1.2-2.8-2.16-3.51-4a11.68,11.68,0,0,1,1.18-1.45c14.27-13.34,28.27-27,43.17-39.64,1.1-.94,2.24-1.82,3.32-2.78a9.22,9.22,0,0,1,7.6-2.2c4.53.56,8.62,1.93,12,5.37,13,13.3,26.1,26.45,39.13,39.69C634,878,642,886.26,650.08,894.45a64,64,0,0,0,6.88,6c3.91,3,8,3,12,.09a70.94,70.94,0,0,0,7.31-6.21q14.25-13.95,28.37-28,61.61-61,123.22-122.09c3.53-3.49,7.34-6.69,11-10A17.6,17.6,0,0,1,840.92,732.84Z"/></g></svg>