<svg xmlns="http://www.w3.org/2000/svg" viewBox="0 0 1417.32 1417.32"><defs><style>.cls-1{fill:#168754;}</style></defs><title>Artboard 20</title><g id="Other"><path class="cls-1" d="M707.94,634.14c-40.92-.26-67.93-27-68.19-67.61-.28-41.84,27.28-69.08,69.72-68.91,39.62.16,68.53,28.48,69,67.6C779,605.17,749,634.4,707.94,634.14Z"/><path class="cls-1" d="M419.78,567.93c-.42,42.47-26.84,67-71.33,66.16-40-.73-65.79-28.59-65-70.27.81-40.86,27.53-66.44,69.08-66.16C395.35,498,420.21,523.94,419.78,567.93Z"/><path class="cls-1" d="M1065,634.1c-42.92-.07-68.56-26.42-67.94-69.82.59-41.69,26.17-66.65,68.29-66.62,42.59,0,69.26,27.23,68.45,69.82C1133,608.71,1106.73,634.17,1065,634.1Z"/><path class="cls-1" d="M419.78,851c0,42.84-25.89,68.52-69.2,68.55-40.61,0-67-26.81-67.11-68.15s26.21-68.44,66.71-68.57C393.58,782.72,419.74,808.34,419.78,851Z"/><path class="cls-1" d="M709.39,919.7c-42.44.19-70-27.1-69.72-69.07.25-40.7,27-67.38,68.06-67.89,40.81-.5,71.23,29.19,70.8,69.08C778.12,890.82,748.88,919.53,709.39,919.7Z"/><path class="cls-1" d="M1064.66,782.81c42.09-.22,69.59,27.31,69.19,69.27-.38,40.64-27.29,67.35-68.06,67.55-42.34.21-69.11-26.74-68.79-69.26C997.31,809.29,1023.61,783,1064.66,782.81Z"/></g></svg>