<svg xmlns="http://www.w3.org/2000/svg" viewBox="0 0 1417.32 1417.32"><defs><style>.cls-1{fill:#168754;}.cls-2{fill:#dad9d9;}.cls-3{fill:#30b670;}</style></defs><title>Artboard 3</title><g id="Payment_Method" data-name="Payment Method"><path class="cls-1" d="M956.68,983.06a52.61,52.61,0,0,1-1.19,13.08c-2-1.5-6.43-2.06-14.6-2.18.16-2.05.22-4.31.21-6.82-.68-98.3-.31-196.61-.31-294.91h-.62c0-98.3,1-196.62-.4-294.88-.79-55.67-29.71-88.5-73.85-88.62q-156.79-.41-313.61.28a74.57,74.57,0,0,0-33.08,8.2c-34.4,17.71-42.76,54.53-42.74,97q.15,287.1-.27,574.2c0,2,0,3.85.16,5.53-8.4.16-12.81.82-14.66,2.4a51,51,0,0,1-1.09-12q.84-293,.29-586c0-43.38,8.9-81,45.61-99a82.63,82.63,0,0,1,35.3-8.37q167.31-.93,334.63-.28c47.1.12,78,33.62,78.81,90.43,1.49,100.27.42,200.6.42,300.92h.66C956.35,782.43,956,882.74,956.68,983.06Z"/><path class="cls-2" d="M956.4,1118.84c0,8.89-8.9,16.6-45.6,20.29-10.93,1.12-23.48,1.71-35.32,1.72q-167.31.2-334.62.07c-47.09,0-78-6.89-78.81-18.55-1.48-20.56-.41-41.13-.41-61.69H461c0-20.57.38-41.14-.35-61.7a3.05,3.05,0,0,1,1.09-2.61c2.18-1.86,7.92-2.45,19.54-2.43q227.76.19,455.55,0c10.79,0,16.42.46,18.68,2.2a3,3,0,0,1,1.2,2.56C956.14,1038.75,956.3,1078.79,956.4,1118.84Z"/><rect class="cls-3" x="602.36" y="1039.1" width="212.6" height="56.69" rx="19.67" ry="19.67"/><path class="cls-1" d="M941.1,987.14c0,2.51-.05,4.77-.21,6.82l-4.08,0q-227.79.16-455.55,0c-1.76,0-3.38,0-4.88,0-.11-1.68-.16-3.52-.16-5.53q.78-287.1.27-574.2c0-42.51,8.34-79.33,42.74-97a74.57,74.57,0,0,1,33.08-8.2q156.8-.92,313.61-.28c44.14.12,73.06,32.95,73.85,88.62,1.4,98.26.4,196.58.4,294.88h.62C940.79,790.53,940.42,888.84,941.1,987.14Z"/><path d="M708.51,726c-53.76,0-97.06-43.65-97-97.83,0-52.76,44.28-96.81,97.56-96.43,54.24.38,96.82,44.28,96.74,98.2C805.69,682.6,761.8,726,708.51,726Zm75.31-97c0-42-33.19-75.43-74.8-75.46s-75.26,33.24-75.83,74.07a75.69,75.69,0,0,0,75.2,76.9C750.09,704.85,783.82,670.88,783.82,629Z"/><path d="M639,718.46c-6.87,0-12.31,0-17.74,0-7.88.08-10.52,2.68-10.61,10.48,0,4.17-.16,8.35.11,12.49.33,5,3,7.46,8,7.84,1.33.11,2.67,0,4,0h172c9.75,0,11.82-2,11.84-11.59,0-3.16,0-6.33,0-9.49-.11-6.92-2.74-9.59-9.74-9.75-4.83-.11-9.67,0-14.5-.06a20,20,0,0,1-3.06-.61c6.48-6.82,12.43-13.48,18.91-19.57,1.36-1.28,4.86-1.09,7.08-.5,11.52,3.07,19.88,10.14,21.75,22.11a87.6,87.6,0,0,1,.34,26.75c-2.4,15.25-14.19,24.19-29.63,24.22-24,0-48,0-72,0h-105c-19.21,0-31.66-12.31-31.6-31.48,0-6.46-.12-13.06,1-19.36,2.13-11.51,9.68-18.57,20.75-22,4.47-1.38,8-.93,11.36,3.2C627,707,632.6,712,639,718.46Z"/><path d="M725.3,606.41c-5.1-.71-10.18-1.84-15.29-2a34.39,34.39,0,0,0-11.11,2c-1.53.5-3.6,2.79-3.48,4.09a6.79,6.79,0,0,0,3.56,4.69c5,2.15,10.39,3.47,15.49,5.46a102.34,102.34,0,0,1,14.5,6.55c14.61,8.6,14.52,30.25,0,39.07a11.86,11.86,0,0,1-2.61,1.46c-6.22,1.72-10.48,4.39-9.5,12.23.48,3.86-4.14,6.55-8.64,6.4s-8.46-3-8-7.21c.89-7.78-3-10.15-9.61-11.15a29.46,29.46,0,0,1-7.95-2.93,8.91,8.91,0,0,1-5-10.81c1.36-4.49,4.66-6.61,9.16-5.82s8.57,2.7,13,3.37c5,.76,10.24,1.41,15.17.69,2.6-.38,4.77-3.78,7.13-5.82-2-2.14-3.65-5.17-6.13-6.23-6.55-2.8-13.53-4.58-20.21-7.07-7-2.6-13.37-6-16.47-13.49-5.35-12.9.33-25.64,14.74-31.11,4.56-1.73,6.26-3.7,6-8.47-.23-5.51,3.42-8.91,8.53-8.9s8.86,3.51,8.45,8.92,1.75,7.4,6.76,8,9.49,2.39,10.09,8.5C734.52,602.71,731.16,606.43,725.3,606.41Z"/></g></svg>