<svg xmlns="http://www.w3.org/2000/svg" viewBox="0 0 1417.32 1417.32"><defs><style>.cls-1{fill:#168754;}.cls-2{fill:#dad9d9;}</style></defs><title>Artboard 5</title><g id="Shipping_Discount" data-name="Shipping Discount"><path class="cls-1" d="M1131.86,523.51c0,53.42.67,106.85-.29,160.25-.46,26-12.3,48.16-30.48,66.42Q928,924,754.43,1097.51c-48.77,48.51-125,48.4-173.77.06Q450,967.94,320.78,836.91C270,785.44,271,714.05,322.26,662.61q171-171.66,342.1-343.16c24.38-24.52,53.31-36,87.53-36,94.17.15,188.34,0,282.5.08,60.81.07,98.3,37.07,99,98.37.53,47.19.1,94.4.1,141.6ZM916.7,563.73c38.71.13,63.82-24.58,64.15-63.12.32-36.51-28-65.9-63.28-65.67a65.14,65.14,0,0,0-64.74,64.81C852.39,537,878.92,563.61,916.7,563.73Z"/><path class="cls-2" d="M916.7,563.73c-37.78-.12-64.31-26.69-63.87-64a65.14,65.14,0,0,1,64.74-64.81c35.27-.23,63.6,29.16,63.28,65.67C980.52,539.15,955.41,563.86,916.7,563.73Z"/><path class="cls-2" d="M485.79,719.81c5.79-1.24,11.58-3.55,17.38-3.56q164.9-.33,329.78-.17c7.33,0,14.66-.08,22,0,12.35.12,20.71,7,21.16,17.25.49,11.18-7.69,19.21-20.89,19.35-27.61.3-55.24.13-82.85.13q-131.48,0-262.94-.06a86.29,86.29,0,0,1-14.3-.8c-7-1.16-11.42-5.45-13.45-12.39S481.09,726.79,485.79,719.81Z"/><path class="cls-2" d="M704.56,903.9c-14.93,15-37.2,15.19-52.14.5-14.74-14.49-15-38.87-.6-53.12a37.72,37.72,0,0,1,53.25.33C719.59,866.42,719.37,889,704.56,903.9Z"/><path class="cls-2" d="M652.21,617.11c-14.39-14-14.75-38.49-.77-52.52a37.65,37.65,0,0,1,53.23-.45c14.74,14.58,14.86,37.17.28,52.28C690,631.89,667.69,632.19,652.21,617.11Z"/></g></svg>