<svg xmlns="http://www.w3.org/2000/svg" viewBox="0 0 1417.32 1417.32"><defs><style>.cls-1{fill:#168754;}.cls-2{fill:#fff;}.cls-3{fill:#dad9d9;}</style></defs><title>Artboard 4</title><g id="Shipping_Fee" data-name="Shipping Fee"><path class="cls-1" d="M1133.86,984.76c-24.33,0-47,.39-69.61-.18-10.55-.26-15.46,1.38-16.75,14.11-6.64,65.76-60.15,113-126.14,112.9-66.49-.08-118.53-47-125.57-113.33-.8-7.59-1.4-13.72-11.81-13.65-52.18.38-104.36.24-156.55.34-1.33,0-2.66.7-4,1.09-3,13.41-4.78,27-9,39.86-19,57.07-71.46,90.41-132.54,85-58.1-5.13-102.75-47.17-112-105.42-3.28-20.74-3.28-20.74-24.06-20.75H283.46V430.49h16.36c172.69,0,345.37.2,518.05-.36,15.1-.05,18.23,4.85,17.83,18.64-.92,31.76.18,63.58-.54,95.34-.27,11.56,3.69,14.65,14.71,14.34,24.65-.71,49.37-1,74,.21,8.16.39,18.11,3.71,23.79,9.24q68.26,66.51,134.82,134.78c5.23,5.35,8.55,14.89,8.65,22.55.74,53.12.67,106.26.18,159.39-.11,11.53,3,15.8,15.16,15.54,27.4-.58,27.41,0,27.41,28.07Zm-128.14-212.6c3.79-16.27,2.24-28.16-9.77-39-18.27-16.47-37.15-33-52-52.37-24.68-32.22-55.28-43.6-94.7-38.26C838,644.08,835,646.8,835.19,657.62c.64,28.88.22,57.78.22,86.68,0,27.86,0,27.86,27.55,27.86ZM430,985.51c0,36.47,28.47,64.86,64.93,64.78,35.49-.09,64.9-29.88,64.72-65.58-.17-35.49-29.9-64.76-65.56-64.55C457.24,920.39,430,948.17,430,985.51Zm427.12-.81c-.14,36.43,28,65.23,64,65.58,35.49.34,65.08-29.09,65.13-64.78,0-36.53-27.94-65-64.34-65.33C887.2,919.82,854.66,949.2,857.13,984.7Z"/><path class="cls-2" d="M1005.72,772.16H863c-27.55,0-27.55,0-27.55-27.86,0-28.9.42-57.8-.22-86.68-.23-10.82,2.79-13.54,14.06-15.07,39.42-5.34,70,6,94.7,38.26,14.85,19.38,33.73,35.9,52,52.37C1008,744,1009.51,755.89,1005.72,772.16Z"/><path class="cls-2" d="M430,985.51c0-37.34,27.23-65.12,64.09-65.35,35.66-.21,65.39,29.06,65.56,64.55.18,35.7-29.23,65.49-64.72,65.58C458.48,1050.37,430,1022,430,985.51Z"/><path class="cls-2" d="M857.13,984.7c-2.47-35.5,30.07-64.88,64.82-64.53,36.4.36,64.38,28.8,64.34,65.33,0,35.69-29.64,65.12-65.13,64.78C885.12,1049.93,857,1021.13,857.13,984.7Z"/><path class="cls-3" d="M559.56,796c-53.76,0-97.06-43.65-97-97.83,0-52.76,44.29-96.81,97.57-96.43,54.24.38,96.81,44.28,96.74,98.2C656.74,752.65,612.85,796,559.56,796Zm75.31-97c0-41.95-33.19-75.43-74.8-75.46s-75.26,33.24-75.83,74.07a75.69,75.69,0,0,0,75.2,76.9C601.14,774.9,634.87,740.93,634.87,699Z"/><path class="cls-3" d="M576.35,676.46c-5.1-.71-10.18-1.84-15.29-2a34.39,34.39,0,0,0-11.11,2c-1.53.5-3.6,2.79-3.48,4.09a6.79,6.79,0,0,0,3.56,4.69c5,2.15,10.39,3.47,15.49,5.46a102.34,102.34,0,0,1,14.5,6.55c14.61,8.6,14.52,30.25,0,39.07a11.86,11.86,0,0,1-2.61,1.46c-6.22,1.72-10.48,4.39-9.5,12.23.48,3.86-4.14,6.55-8.64,6.4s-8.46-3-8-7.21c.89-7.78-3-10.15-9.61-11.15a29.46,29.46,0,0,1-8-2.93,8.91,8.91,0,0,1-5-10.81c1.36-4.49,4.66-6.61,9.16-5.82s8.57,2.7,13,3.37c5,.76,10.25,1.41,15.18.69,2.6-.38,4.77-3.78,7.13-5.82-2-2.14-3.65-5.17-6.13-6.23-6.55-2.8-13.53-4.58-20.21-7.07-7-2.6-13.37-6-16.47-13.49-5.35-12.9.33-25.64,14.74-31.11,4.56-1.74,6.26-3.7,6-8.47-.23-5.51,3.42-8.91,8.53-8.9s8.86,3.51,8.45,8.92,1.74,7.4,6.76,8,9.49,2.39,10.09,8.5C585.57,672.76,582.21,676.48,576.35,676.46Z"/></g></svg>