<svg xmlns="http://www.w3.org/2000/svg" viewBox="0 0 1417.32 1417.32"><defs><style>.cls-1{fill:#30b670;}.cls-2{fill:#168754;}</style></defs><title>Artboard 2</title><g id="Subtotal"><path class="cls-1" d="M708.33,319.86v20.56c0,126,.36,252-.4,378-.11,18,4.59,22.83,22.82,22.7,126.83-.85,253.66-.45,380.49-.44,23.44,0,23.87.09,20.38,22.32-25.57,162.87-114.71,276.63-271.49,328.28-234,77.09-466.14-69.91-513-293.5-41.32-197,58.95-380.51,245.68-454.9C626.48,329.43,685.18,317.43,708.33,319.86Z"/><path class="cls-2" d="M750.38,698.72V679.18c0-118.29.36-236.59-.4-354.87-.11-17.05,4.88-22.94,21.7-22.74,176.39,2.11,327.78,115.49,366.16,290.3,6.65,30.28,7.14,61.92,10.27,93,.92,9-2.11,14.09-12.82,14.07C1007.91,698.63,880.52,698.72,750.38,698.72Z"/></g></svg>