<svg xmlns="http://www.w3.org/2000/svg" viewBox="0 0 1417.32 1417.32"><defs><style>.cls-1{fill:#168754;}</style></defs><title>Artboard 17</title><g id="user"><path class="cls-1" d="M709.35,1133.84q-157.73,0-315.44,0c-40,0-59.86-21.62-56.88-61.72,12.26-165.2,137.33-281.74,303.16-281.52,60.31.08,120.85-.87,180.88,3.89,133.72,10.6,245.95,125.84,256.87,259.75.41,5,.93,9.9,1.65,14.81,5.89,40.36-14.6,64.75-54.8,64.78Q867.07,1133.93,709.35,1133.84Z"/><path class="cls-1" d="M919.57,495.65c4.16,107.59-88.12,212.29-210.12,211.72-118-.55-211.74-93.23-211.66-210.62.08-118.57,94.48-214.58,211.66-213.27C838,284.92,923.89,392.88,919.57,495.65Z"/></g></svg>